<?xml version="1.0" standalone="no"?>
<!DOCTYPE svg PUBLIC "-//W3C//DTD SVG 20010904//EN"
 "http://www.w3.org/TR/2001/REC-SVG-20010904/DTD/svg10.dtd">
<svg version="1.0" xmlns="http://www.w3.org/2000/svg"
 width="500.000000pt" height="500.000000pt" viewBox="0 0 500.000000 500.000000"
 preserveAspectRatio="xMidYMid meet">
<metadata>
Created by potrace 1.14, written by Peter Selinger 2001-2017
</metadata>
<g transform="translate(0.000000,500.000000) scale(0.100000,-0.100000)"
fill="#000000" stroke="none">
<path d="M0 4850 l0 -150 450 0 450 0 0 150 0 150 -450 0 -450 0 0 -150z"/>
<path d="M4150 4840 l0 -160 425 0 425 0 0 160 0 160 -425 0 -425 0 0 -160z"/>
<path d="M910 3595 l0 -725 725 0 725 0 0 725 0 725 -725 0 -725 0 0 -725z
m1000 265 l0 -60 -280 0 -280 0 0 60 0 60 280 0 280 0 0 -60z m-210 -385 l0
-275 -70 0 -70 0 0 275 0 275 70 0 70 0 0 -275z"/>
<path d="M2700 1980 l0 -720 720 0 720 0 0 720 0 720 -720 0 -720 0 0 -720z
m1284 155 c3 -8 1 -15 -4 -15 -6 0 -10 7 -10 15 0 8 2 15 4 15 2 0 6 -7 10
-15z m20 -82 c18 -114 -8 -258 -66 -363 -34 -61 -138 -173 -181 -196 -17 -9 5
18 52 65 45 45 81 85 81 90 0 5 -21 13 -47 19 l-48 10 56 1 c65 1 74 10 104
101 10 30 20 60 22 66 2 6 -7 14 -21 16 -16 3 -26 1 -26 -7 0 -18 -39 -55 -58
-55 -13 1 -10 6 11 21 25 19 27 25 27 97 0 43 5 84 10 92 7 10 10 -7 10 -58
l0 -73 28 3 c27 3 27 4 30 86 2 48 -2 89 -7 96 -10 12 -5 26 9 26 4 0 10 -17
14 -37z m-994 -165 c0 -14 -18 -9 -24 8 -11 28 -6 39 9 20 8 -11 15 -23 15
-28z m20 -38 c0 -5 -4 -10 -10 -10 -5 0 -10 5 -10 10 0 6 5 10 10 10 6 0 10
-4 10 -10z m538 -95 c1 -27 -2 -68 -8 -90 -5 -22 -12 -51 -14 -65 -7 -40 -22
-74 -42 -91 -26 -22 -570 -203 -589 -195 -34 13 -32 46 10 158 42 111 76 161
117 171 13 3 33 9 46 12 13 4 22 3 22 -3 0 -5 -12 -13 -27 -17 -20 -5 -23 -9
-14 -15 8 -4 27 -3 44 3 22 7 32 7 35 -1 2 -6 10 -8 18 -5 10 4 12 8 5 13 -6
3 69 35 166 69 168 59 234 91 189 91 -9 0 -94 -27 -187 -61 -94 -33 -173 -58
-176 -55 -4 3 8 11 25 17 18 6 32 17 32 25 0 8 16 22 35 30 44 18 59 18 51 -1
-5 -14 -2 -13 24 0 17 9 30 14 30 12 0 -3 35 8 78 24 42 15 88 27 102 26 22
-2 24 -7 28 -52z m-488 30 c8 0 21 -12 30 -28 13 -24 13 -29 0 -37 -30 -19
-46 -11 -56 30 -10 37 -7 60 5 43 3 -5 13 -8 21 -8z m37 -92 c-4 -3 -2 -12 4
-20 18 -21 4 -15 -16 7 -17 19 -17 20 0 20 10 0 15 -3 12 -7z"/>
<path d="M3016 1605 c-18 -13 -18 -14 3 -12 11 1 21 7 21 14 0 16 0 16 -24 -2z"/>
<path d="M910 1815 l0 -725 725 0 725 0 0 725 0 725 -725 0 -725 0 0 -725z
m892 343 c71 -33 110 -86 116 -161 12 -147 -85 -247 -257 -263 l-71 -7 0 55 0
54 62 12 c72 13 106 41 114 93 8 47 -9 85 -48 109 -29 18 -51 20 -180 20
l-148 0 0 61 0 61 178 -4 c167 -3 180 -5 234 -30z m-262 -413 l0 -275 -75 0
-75 0 0 275 0 275 75 0 75 0 0 -275z m346 -153 l73 -122 -87 0 -87 0 -55 98
c-68 120 -68 122 -33 123 15 0 44 7 63 14 19 7 39 12 44 11 5 -1 42 -57 82
-124z"/>
<path d="M2200 680 c0 -5 14 -10 31 -10 49 0 69 -16 69 -56 0 -31 -4 -37 -30
-47 -34 -13 -40 -27 -11 -27 35 0 71 38 71 76 0 49 -29 74 -85 74 -25 0 -45
-4 -45 -10z"/>
<path d="M2430 615 c0 -60 3 -75 15 -75 12 0 15 15 15 75 0 60 -3 75 -15 75
-12 0 -15 -15 -15 -75z"/>
<path d="M2560 680 c0 -5 20 -10 45 -10 25 0 45 5 45 10 0 6 -20 10 -45 10
-25 0 -45 -4 -45 -10z"/>
<path d="M2740 680 c0 -5 20 -10 44 -10 25 0 48 5 51 10 4 6 -13 10 -44 10
-28 0 -51 -4 -51 -10z"/>
<path d="M2925 680 c3 -5 26 -10 51 -10 24 0 44 5 44 10 0 6 -23 10 -51 10
-31 0 -48 -4 -44 -10z"/>
<path d="M3120 680 c0 -5 13 -10 29 -10 31 0 57 -22 46 -40 -3 -5 -13 -10 -21
-10 -8 0 -14 -4 -14 -10 0 -16 37 -12 54 6 20 19 20 24 0 52 -11 16 -25 22
-55 22 -21 0 -39 -4 -39 -10z"/>
<path d="M3320 680 c0 -5 23 -10 50 -10 28 0 50 5 50 10 0 6 -22 10 -50 10
-27 0 -50 -4 -50 -10z"/>
<path d="M3531 668 c32 -60 83 -128 97 -128 13 0 13 3 0 23 -9 12 -30 46 -47
75 -18 28 -39 52 -47 52 -12 0 -13 -4 -3 -22z"/>
<path d="M3620 641 c0 -28 5 -53 10 -56 6 -4 10 15 10 49 0 31 -4 56 -10 56
-5 0 -10 -22 -10 -49z"/>
<path d="M3730 680 c0 -5 25 -10 55 -10 30 0 55 5 55 10 0 6 -25 10 -55 10
-30 0 -55 -4 -55 -10z"/>
<path d="M3930 635 c0 -42 3 -55 15 -55 12 0 15 13 15 55 0 42 -3 55 -15 55
-12 0 -15 -13 -15 -55z"/>
<path d="M4125 640 c14 -27 25 -61 25 -75 0 -25 19 -36 21 -12 4 43 -34 137
-57 137 -11 0 -9 -11 11 -50z"/>
<path d="M4186 662 c-8 -16 -11 -34 -7 -40 5 -8 13 0 24 23 20 41 20 45 7 45
-5 0 -16 -13 -24 -28z"/>
<path d="M2213 653 c-20 -7 -17 -113 2 -113 12 0 15 13 15 60 0 33 -1 60 -2
59 -2 0 -9 -3 -15 -6z"/>
<path d="M2560 600 c0 -47 3 -60 15 -60 11 0 15 13 15 54 0 39 -4 55 -15 60
-12 4 -15 -5 -15 -54z"/>
<path d="M2928 645 c-1 -11 -2 -39 -2 -62 l-1 -43 48 0 c53 0 65 17 15 22 -31
3 -33 6 -36 43 -4 43 -21 72 -24 40z"/>
<path d="M3120 601 c0 -48 3 -61 15 -61 13 0 15 11 13 57 -4 81 -28 85 -28 4z"/>
<path d="M2740 595 c0 -42 3 -55 15 -55 12 0 15 13 15 55 0 42 -3 55 -15 55
-12 0 -15 -13 -15 -55z"/>
<path d="M3320 595 l0 -55 50 0 c28 0 50 5 50 10 0 6 -16 10 -35 10 -35 0 -35
0 -35 45 0 33 -4 45 -15 45 -12 0 -15 -13 -15 -55z"/>
<path d="M3520 598 c0 -32 4 -58 10 -58 13 0 13 80 0 100 -7 11 -10 -2 -10
-42z"/>
<path d="M3770 595 c0 -42 3 -55 15 -55 12 0 15 13 15 55 0 42 -3 55 -15 55
-12 0 -15 -13 -15 -55z"/>
<path d="M2970 620 c0 -5 9 -10 20 -10 11 0 20 5 20 10 0 6 -9 10 -20 10 -11
0 -20 -4 -20 -10z"/>
<path d="M3370 620 c0 -5 9 -10 20 -10 11 0 20 5 20 10 0 6 -9 10 -20 10 -11
0 -20 -4 -20 -10z"/>
<path d="M2600 610 c0 -5 9 -10 20 -10 11 0 20 5 20 10 0 6 -9 10 -20 10 -11
0 -20 -4 -20 -10z"/>
<path d="M2780 610 c0 -5 11 -10 25 -10 14 0 25 5 25 10 0 6 -11 10 -25 10
-14 0 -25 -4 -25 -10z"/>
<path d="M3180 584 c0 -16 23 -44 35 -44 18 0 19 10 1 33 -12 16 -36 24 -36
11z"/>
<path d="M3930 550 c0 -5 20 -10 45 -10 25 0 45 5 45 10 0 6 -20 10 -45 10
-25 0 -45 -4 -45 -10z"/>
<path d="M4150 150 l0 -150 425 0 425 0 0 150 0 150 -425 0 -425 0 0 -150z"/>
</g>
</svg>
